<svg xmlns="http://www.w3.org/2000/svg">
    <symbol id="github" viewBox="0 0 24 24">
        <path d="M12 0a12 12 0 0 0-3.794 23.383c.6.112.821-.261.821-.577v-2.308c-3.338.728-4.042-1.607-4.042-1.607a3.162 3.162 0 0 0-1.318-1.742c-1.078-.738.081-.723.081-.723a2.52 2.52 0 0 1 1.83 1.231a2.544 2.544 0 0 0 3.478.99a2.544 2.544 0 0 1 .754-1.596c-2.643-.299-5.417-1.32-5.417-5.875a4.6 4.6 0 0 1 1.225-3.185a4.267 4.267 0 0 1 .116-3.14s1.007-.318 3.3 1.219a11.265 11.265 0 0 1 6 0c2.292-1.537 3.298-1.219 3.298-1.219a4.267 4.267 0 0 1 .116 3.140a4.6 4.6 0 0 1 1.225 3.185c0 4.567-2.775 5.576-5.424 5.867a2.848 2.848 0 0 1 .812 2.211v3.273c0 .32.218.694.831.577A12 12 0 0 0 12 0z"/>
    </symbol>
    <symbol id="discord" viewBox="0 0 256 256">
        <path d="M216.856339,16.5966031 C200.285002,8.84328665 182.566144,3.2084988 164.041564,0 C161.766523,4.11318106 159.108624,9.64549908 157.276099,14.0464379 C137.583995,11.0849896 118.072967,11.0849896 98.7430163,14.0464379 C96.9108417,9.64549908 94.1925838,4.11318106 91.8971895,0 C73.3526068,3.2084988 55.6133949,8.86399117 39.0420583,16.6376612 C5.61752293,67.146514 -3.4433191,116.400813 1.08711069,164.955721 C23.2560196,181.510915 44.7403634,191.567697 65.8621325,198.148576 C71.0772151,190.971126 75.7283628,183.341335 79.7352139,175.300261 C72.104019,172.400575 64.7949724,168.822202 57.8887866,164.667963 C59.7209612,163.310589 61.5131304,161.891452 63.2445898,160.431257 C105.36741,180.133187 151.134928,180.133187 192.754523,160.431257 C194.506336,161.891452 196.298154,163.310589 198.110326,164.667963 C191.183787,168.842556 183.854737,172.420929 176.223542,175.320965 C180.230393,183.341335 184.861538,190.991831 190.096624,198.16893 C211.238746,191.588051 232.743023,181.531619 254.911949,164.955721 C260.227747,108.668201 245.831087,59.8662432 216.856339,16.5966031 Z M85.4738752,135.09489 C72.8290281,135.09489 62.4592217,123.290155 62.4592217,108.914901 C62.4592217,94.5396472 72.607595,82.7145587 85.4738752,82.7145587 C98.3405064,82.7145587 108.709962,94.5189427 108.488529,108.914901 C108.508531,123.290155 98.3405064,135.09489 85.4738752,135.09489 Z M170.525237,135.09489 C157.88039,135.09489 147.510584,123.290155 147.510584,108.914901 C147.510584,94.5396472 157.658606,82.7145587 170.525237,82.7145587 C183.391518,82.7145587 193.761324,94.5189427 193.539891,108.914901 C193.539891,123.290155 183.391518,135.09489 170.525237,135.09489 Z" fill-rule="nonzero"/>
    </symbol>
    <symbol id="reddit-circle" viewBox="0 0 90 90">
        <circle cx="45" cy="45" r="45"/>
    </symbol>
        <symbol id="reddit-icon" viewBox="0 0 90 90">
        <path d="M 75.011 45 c -0.134 -3.624 -3.177 -6.454 -6.812 -6.331 c -1.611 0.056 -3.143 0.716 -4.306 1.823 c -5.123 -3.49 -11.141 -5.403 -17.327 -5.537 l 2.919 -14.038 l 9.631 2.025 c 0.268 2.472 2.483 4.262 4.955 3.993 c 2.472 -0.268 4.262 -2.483 3.993 -4.955 s -2.483 -4.262 -4.955 -3.993 c -1.421 0.145 -2.696 0.973 -3.4 2.204 L 48.68 17.987 c -0.749 -0.168 -1.499 0.302 -1.667 1.063 c 0 0.011 0 0.011 0 0.022 l -3.322 15.615 c -6.264 0.101 -12.36 2.025 -17.55 5.537 c -2.64 -2.483 -6.801 -2.36 -9.284 0.291 c -2.483 2.64 -2.36 6.801 0.291 9.284 c 0.515 0.481 1.107 0.895 1.767 1.186 c -0.045 0.66 -0.045 1.32 0 1.98 c 0 10.078 11.745 18.277 26.23 18.277 c 14.485 0 26.23 -8.188 26.23 -18.277 c 0.045 -0.66 0.045 -1.32 0 -1.98 C 73.635 49.855 75.056 47.528 75.011 45 z M 30.011 49.508 c 0 -2.483 2.025 -4.508 4.508 -4.508 c 2.483 0 4.508 2.025 4.508 4.508 s -2.025 4.508 -4.508 4.508 C 32.025 53.993 30.011 51.991 30.011 49.508 z M 56.152 62.058 v -0.179 c -3.199 2.405 -7.114 3.635 -11.119 3.468 c -4.005 0.168 -7.919 -1.063 -11.119 -3.468 c -0.425 -0.515 -0.347 -1.286 0.168 -1.711 c 0.447 -0.369 1.085 -0.369 1.544 0 c 2.707 1.98 6.007 2.987 9.362 2.83 c 3.356 0.179 6.667 -0.783 9.407 -2.74 c 0.492 -0.481 1.297 -0.47 1.779 0.022 C 56.655 60.772 56.644 61.577 56.152 62.058 z M 55.537 54.34 c -0.078 0 -0.145 0 -0.224 0 l 0.034 -0.168 c -2.483 0 -4.508 -2.025 -4.508 -4.508 s 2.025 -4.508 4.508 -4.508 s 4.508 2.025 4.508 4.508 C 59.955 52.148 58.02 54.239 55.537 54.34 z" style="stroke: none; stroke-width: 1; stroke-dasharray: none; stroke-linecap: butt; stroke-linejoin: miter; stroke-miterlimit: 10; fill-rule: nonzero; opacity: 1;" transform=" matrix(1 0 0 1 0 0) " stroke-linecap="round" />
    </symbol>
    <symbol id="modrinth" viewBox="0 0 512 512">
        <path fill-rule="evenodd" clip-rule="evenodd" d="M503.16 323.56C514.55 281.47 515.32 235.91 503.2 190.76C466.57 54.2299 326.04 -26.8001 189.33 9.77991C83.8101 38.0199 11.3899 128.07 0.689941 230.47H43.99C54.29 147.33 113.74 74.7298 199.75 51.7098C306.05 23.2598 415.13 80.6699 453.17 181.38L411.03 192.65C391.64 145.8 352.57 111.45 306.3 96.8198L298.56 140.66C335.09 154.13 364.72 184.5 375.56 224.91C391.36 283.8 361.94 344.14 308.56 369.17L320.09 412.16C390.25 383.21 432.4 310.3 422.43 235.14L464.41 223.91C468.91 252.62 467.35 281.16 460.55 308.07L503.16 323.56Z" fill="var(--color-brand)"/><path d="M321.99 504.22C185.27 540.8 44.7501 459.77 8.11011 323.24C3.84011 307.31 1.17 291.33 0 275.46H43.27C44.36 287.37 46.4699 299.35 49.6799 311.29C53.0399 323.8 57.45 335.75 62.79 347.07L101.38 323.92C98.1299 316.42 95.39 308.6 93.21 300.47C69.17 210.87 122.41 118.77 212.13 94.7601C229.13 90.2101 246.23 88.4401 262.93 89.1501L255.19 133C244.73 133.05 234.11 134.42 223.53 137.25C157.31 154.98 118.01 222.95 135.75 289.09C136.85 293.16 138.13 297.13 139.59 300.99L188.94 271.38L174.07 231.95L220.67 184.08L279.57 171.39L296.62 192.38L269.47 219.88L245.79 227.33L228.87 244.72L237.16 267.79C237.16 267.79 253.95 285.63 253.98 285.64L277.7 279.33L294.58 260.79L331.44 249.12L342.42 273.82L304.39 320.45L240.66 340.63L212.08 308.81L162.26 338.7C187.8 367.78 226.2 383.93 266.01 380.56L277.54 423.55C218.13 431.41 160.1 406.82 124.05 361.64L85.6399 384.68C136.25 451.17 223.84 484.11 309.61 461.16C371.35 444.64 419.4 402.56 445.42 349.38L488.06 364.88C457.17 431.16 398.22 483.82 321.99 504.22Z"/>
    </symbol>
    <symbol id="curseforge" viewBox="0 0 40 40">
        <path d="M29.4889 15.285C29.4889 15.285 36.8392 14.1158 38 10.7058H26.7401V8H2L5.0477 11.5674V15.2225C5.0477 15.2225 12.7377 14.8191 15.7124 17.0946C19.7842 20.9017 11.1328 26.048 11.1328 26.048L9.64927 31C11.9691 28.7718 16.3905 25.8892 24.4969 26.0282C21.412 27.0117 18.3101 28.5478 15.8952 31H32.2824L30.7393 26.048C30.7393 26.048 18.8623 18.9833 29.4889 15.2855V15.285Z"/>
    </symbol>
    <symbol id="mail" viewBox="0 -960 960 960">
        <path d="M172-126q-53 0-89.5-36.5T46-252v-456q0-53 36.5-89.5T172-834h616q53 0 89.5 36.5T914-708v456q0 53-36.5 89.5T788-126H172Zm308-283q9 0 17.5-2.5T514-419l252-164q9-5 15.5-15.5T788-622q0-26-23.5-40.5T716-661L480-508 244-661q-24-15-48-2t-24 41q0 14 6.5 24t15.5 15l252 164q8 5 16.5 7.5T480-409Z"/>
    </symbol>
    <symbol id="playicon" viewBox="0 0 459 459">
        <path d="M229.5,0C102.751,0,0,102.751,0,229.5S102.751,459,229.5,459S459,356.249,459,229.5S356.249,0,229.5,0z M310.292,239.651 l-111.764,76.084c-3.761,2.56-8.63,2.831-12.652,0.704c-4.022-2.128-6.538-6.305-6.538-10.855V153.416 c0-4.55,2.516-8.727,6.538-10.855c4.022-2.127,8.891-1.857,12.652,0.704l111.764,76.084c3.359,2.287,5.37,6.087,5.37,10.151 C315.662,233.564,313.652,237.364,310.292,239.651z"/>
    </symbol>
    <symbol id="close" viewBox="0 -960 960 960">
        <path d="m256-200-56-56 224-224-224-224 56-56 224 224 224-224 56 56-224 224 224 224-56 56-224-224-224 224Z"/>
    </symbol>
    <symbol id="lightmode" viewBox="0 -960 960 960">
        <path d="M480-360q50 0 85-35t35-85q0-50-35-85t-85-35q-50 0-85 35t-35 85q0 50 35 85t85 35Zm0 80q-83 0-141.5-58.5T280-480q0-83 58.5-141.5T480-680q83 0 141.5 58.5T680-480q0 83-58.5 141.5T480-280ZM200-440H40v-80h160v80Zm720 0H760v-80h160v80ZM440-760v-160h80v160h-80Zm0 720v-160h80v160h-80ZM256-650l-101-97 57-59 96 100-52 56Zm492 496-97-101 53-55 101 97-57 59Zm-98-550 97-101 59 57-100 96-56-52ZM154-212l101-97 55 53-97 101-59-57Zm326-268Z"/>
    </symbol>
    <symbol id="darkmode" viewBox="0 -960 960 960">
        <path d="M480-120q-150 0-255-105T120-480q0-150 105-255t255-105q14 0 27.5 1t26.5 3q-41 29-65.5 75.5T444-660q0 90 63 153t153 63q55 0 101-24.5t75-65.5q2 13 3 26.5t1 27.5q0 150-105 255T480-120Zm0-80q88 0 158-48.5T740-375q-20 5-40 8t-40 3q-123 0-209.5-86.5T364-660q0-20 3-40t8-40q-78 32-126.5 102T200-480q0 116 82 198t198 82Zm-10-270Z"/>
    </symbol>
</svg>